HIERARCHY
ROOT hip
{
  OFFSET 0 0 0
  CHANNELS 6 Xposition Yposition Zposition Zrotation Yrotation Xrotation
  JOINT abdomen
  {
    OFFSET 0 20.6881 -0.73152
    CHANNELS 3 Zrotation Xrotation Yrotation
    JOINT chest
    {
      OFFSET 0 11.7043 -0.48768
      CHANNELS 3 Zrotation Xrotation Yrotation
      JOINT neck
      {
        OFFSET 0 22.1894 -2.19456
        CHANNELS 3 Zrotation Xrotation Yrotation
        JOINT head
        {
          OFFSET -0.24384 7.07133 1.2192
          CHANNELS 3 Zrotation Xrotation Yrotation
          JOINT leftEye
          {
            OFFSET 4.14528 8.04674 8.04672
            CHANNELS 3 Zrotation Xrotation Yrotation
            End Site
            {
              OFFSET 1 0 0
            }
          }
          JOINT rightEye
          {
            OFFSET -3.6576 8.04674 8.04672
            CHANNELS 3 Zrotation Xrotation Yrotation
            End Site
            {
              OFFSET 1 0 0
            }
          }
        }
      }
      JOINT rCollar
      {
        OFFSET -2.68224 19.2634 -4.8768
        CHANNELS 3 Zrotation Xrotation Yrotation
        JOINT rShldr
        {
          OFFSET -8.77824 -1.95073 1.46304
          CHANNELS 3 Zrotation Xrotation Yrotation
          JOINT rForeArm
          {
            OFFSET -28.1742 -1.7115 0.48768
            CHANNELS 3 Zrotation Xrotation Yrotation
            JOINT rHand
            {
              OFFSET -22.5879 0.773209 7.07136
              CHANNELS 3 Zrotation Xrotation Yrotation
              JOINT rThumb1
              {
                OFFSET -1.2192 -0.487915 3.41376
                CHANNELS 3 Zrotation Xrotation Yrotation
                JOINT rThumb2
                {
                  OFFSET -3.37035 -0.52449 3.41376
                  CHANNELS 3 Zrotation Xrotation Yrotation
                  End Site
                  {
                    OFFSET -1.78271 -1.18214 1.43049
                  }
                }
              }
              JOINT rIndex1
              {
                OFFSET -7.75947 0.938293 5.60832
                CHANNELS 3 Zrotation Xrotation Yrotation
                JOINT rIndex2
                {
                  OFFSET -2.54057 -0.884171 1.56538
                  CHANNELS 3 Zrotation Xrotation Yrotation
                  End Site
                  {
                    OFFSET -1.62519 -0.234802 1.16502
                  }
                }
              }
              JOINT rMid1
              {
                OFFSET -8.24714 1.18213 3.41376
                CHANNELS 3 Zrotation Xrotation Yrotation
                JOINT rMid2
                {
                  OFFSET -3.10165 -0.590103 1.0647
                  CHANNELS 3 Zrotation Xrotation Yrotation
                  End Site
                  {
                    OFFSET -2.48547 -0.328903 0.83742
                  }
                }
              }
              JOINT rRing1
              {
                OFFSET -8.82822 0.546677 1.51678
                CHANNELS 3 Zrotation Xrotation Yrotation
                JOINT rRing2
                {
                  OFFSET -2.60934 -0.819778 -0.0198488
                  CHANNELS 3 Zrotation Xrotation Yrotation
                  End Site
                  {
                    OFFSET -2.33842 -0.294052 0.168128
                  }
                }
              }
              JOINT rPinky1
              {
                OFFSET -8.27202 -0.0477905 -0.4584
                CHANNELS 3 Zrotation Xrotation Yrotation
                JOINT rPinky2
                {
                  OFFSET -1.82734 -0.647385 -0.700984
                  CHANNELS 3 Zrotation Xrotation Yrotation
                  End Site
                  {
                    OFFSET -1.69225 -0.51767 -0.607171
                  }
                }
              }
            }
          }
        }
      }
      JOINT lCollar
      {
        OFFSET 2.68224 19.2634 -4.8768
        CHANNELS 3 Zrotation Xrotation Yrotation
        JOINT lShldr
        {
          OFFSET 8.77824 -1.95073 1.46304
          CHANNELS 3 Zrotation Xrotation Yrotation
          JOINT lForeArm
          {
            OFFSET 28.1742 -1.7115 0.48768
            CHANNELS 3 Zrotation Xrotation Yrotation
            JOINT lHand
            {
              OFFSET 22.5879 0.773209 7.07136
              CHANNELS 3 Zrotation Xrotation Yrotation
              JOINT lThumb1
              {
                OFFSET 1.2192 -0.487915 3.41376
                CHANNELS 3 Zrotation Xrotation Yrotation
                JOINT lThumb2
                {
                  OFFSET 3.37035 -0.52449 3.41376
                  CHANNELS 3 Zrotation Xrotation Yrotation
                  End Site
                  {
                    OFFSET 1.78271 -1.18214 1.43049
                  }
                }
              }
              JOINT lIndex1
              {
                OFFSET 7.75947 0.938293 5.60832
                CHANNELS 3 Zrotation Xrotation Yrotation
                JOINT lIndex2
                {
                  OFFSET 2.54057 -0.884171 1.56538
                  CHANNELS 3 Zrotation Xrotation Yrotation
                  End Site
                  {
                    OFFSET 1.62519 -0.234802 1.16502
                  }
                }
              }
              JOINT lMid1
              {
                OFFSET 8.24714 1.18213 3.41376
                CHANNELS 3 Zrotation Xrotation Yrotation
                JOINT lMid2
                {
                  OFFSET 3.10165 -0.590103 1.0647
                  CHANNELS 3 Zrotation Xrotation Yrotation
                  End Site
                  {
                    OFFSET 2.48547 -0.328903 0.83742
                  }
                }
              }
              JOINT lRing1
              {
                OFFSET 8.82822 0.546677 1.51678
                CHANNELS 3 Zrotation Xrotation Yrotation
                JOINT lRing2
                {
                  OFFSET 2.60934 -0.819778 -0.0198488
                  CHANNELS 3 Zrotation Xrotation Yrotation
                  End Site
                  {
                    OFFSET 2.33842 -0.294052 0.168128
                  }
                }
              }
              JOINT lPinky1
              {
                OFFSET 8.27202 -0.0477905 -0.4584
                CHANNELS 3 Zrotation Xrotation Yrotation
                JOINT lPinky2
                {
                  OFFSET 1.82734 -0.647385 -0.700984
                  CHANNELS 3 Zrotation Xrotation Yrotation
                  End Site
                  {
                    OFFSET 1.69225 -0.51767 -0.607171
                  }
                }
              }
            }
          }
        }
      }
    }
  }
  JOINT rButtock
  {
    OFFSET -8.77824 4.35084 1.2192
    CHANNELS 3 Zrotation Xrotation Yrotation
    JOINT rThigh
    {
      OFFSET 0 -1.70687 -2.19456
      CHANNELS 3 Zrotation Xrotation Yrotation
      JOINT rShin
      {
        OFFSET 0 -36.8199 0.73152
        CHANNELS 3 Zrotation Xrotation Yrotation
        JOINT rFoot
        {
          OFFSET 0.73152 -45.1104 -5.12064
          CHANNELS 3 Zrotation Xrotation Yrotation
          End Site
          {
            OFFSET -1.1221 -3.69964 12.103
          }
        }
      }
    }
  }
  JOINT lButtock
  {
    OFFSET 8.77824 4.35084 1.2192
    CHANNELS 3 Zrotation Xrotation Yrotation
    JOINT lThigh
    {
      OFFSET 0 -1.70687 -2.19456
      CHANNELS 3 Zrotation Xrotation Yrotation
      JOINT lShin
      {
        OFFSET 0 -36.8199 0.73152
        CHANNELS 3 Zrotation Xrotation Yrotation
        JOINT lFoot
        {
          OFFSET -0.73152 -45.1104 -5.12064
          CHANNELS 3 Zrotation Xrotation Yrotation
          End Site
          {
            OFFSET 1.1221 -3.69964 12.103
          }
        }
      }
    }
  }
}
MOTION
Frames:	8
Frame Time:	0.00833333
0.0 0.0 0.0 0.0 0.0 0.0 0.0 0.0 0.0 0.0 0.0 0.0 0.0 0.0 0.0 0.0 0.0 0.0 0.0 0.0 0.0 0.0 0.0 0.0 0.0 0.0 0.0 0.0 0.0 0.0 0.0 0.0 0.0 0.0 0.0 0.0 0.0 0.0 0.0 0.0 0.0 0.0 0.0 0.0 0.0 0.0 0.0 0.0 0.0 0.0 0.0 0.0 0.0 0.0 0.0 0.0 0.0 0.0 0.0 0.0 0.0 0.0 0.0 0.0 0.0 0.0 0.0 0.0 0.0 0.0 0.0 0.0 0.0 0.0 0.0 0.0 0.0 0.0 0.0 0.0 0.0 0.0 0.0 0.0 0.0 0.0 0.0 0.0 0.0 0.0 0.0 0.0 0.0 0.0 0.0 0.0 0.0 0.0 0.0 0.0 0.0 0.0 0.0 0.0 0.0 0.0 0.0 0.0 0.0 0.0 0.0 0.0 0.0 0.0 0.0 0.0 0.0 0.0 0.0 0.0 0.0 0.0 0.0 0.0 0.0 0.0 0.0 0.0 0.0 0.0 0.0 0.0
-87.9768 83.5675 -2.7169 16.730983 78.971323 27.20562 -1.524032 -3.225384 -0.149184 -0.015379 0.925375 1.465428 1.014513 0.992797 10.934717 -0.704928 2.492335 -14.320685 0.003915 -0.0 -0.004091 0.002446 0.0 0.002564 -153.589048 -75.693195 -178.258565 -94.797262 88.781974 91.317379 -175.672949 25.399435 111.177294 164.768313 -33.826866 140.362725 51.060164 -41.203587 12.857057 -30.286744 17.855143 0.326361 -27.421449 30.638975 20.099396 -154.737125 1.830896 109.900962 -36.035977 51.722829 29.833141 -42.042178 58.505933 36.265818 -145.112253 -0.669015 -178.918677 11.269201 13.757871 -7.376716 -156.38096 53.734988 -150.115942 16.006892 43.952466 6.424023 142.973459 39.431391 -147.389538 -32.490079 -47.041114 -31.957763 110.426197 -70.436501 86.521604 3.178963 4.376306 0.898177 169.319511 -7.000968 -89.921699 90.84088 9.478277 -35.298423 1.161599 1.860919 -0.669283 86.574422 47.214355 -67.667909 86.294782 60.960862 -77.857521 163.245679 -5.279495 -143.214957 -0.001212 -0.018523 0.005922 155.430585 -1.3586 -172.011441 -11.403819 38.078503 -9.696073 148.458171 13.047429 143.756754 -179.984223 75.749805 -0.010794 173.111878 65.280459 7.575278 8.136191 19.865936 106.094854 -4.869865 12.193219 -110.694774 -0.0 0.000705 0.001565 -0.914023 -6.589368 -7.915088 -2.620107 1.511346 -7.743524 -179.056394 -38.026578 -31.002086
-88.1317 83.5735 -2.5056 17.691606 79.04017 28.289937 -2.728099 -6.805053 -21.907092 -1.802727 1.506091 24.665088 8.072527 5.997929 62.478058 -2.913048 7.460341 -70.26784 -0.000719 -0.0 0.003258 0.00056 -0.0 -0.002151 -0.048703 0.292466 0.064591 50.455253 13.44169 -5.871801 -168.154184 36.16957 71.699341 169.089628 -27.181039 142.067103 -176.928154 -14.532242 89.658932 -130.53788 14.496594 65.033951 -140.763786 1.380326 116.228328 -69.970943 57.177807 51.42485 0.048221 -0.138528 -0.026245 -42.06741 58.559615 36.100106 -0.006316 3.473538 1.093833 -0.911046 54.281385 13.047367 -119.35935 -34.785893 -117.263063 -160.95385 55.948981 -147.452042 143.298406 38.836929 -147.736252 -105.75122 -51.512161 -109.939485 -109.9551 16.972366 -125.046002 159.757398 46.408623 -133.032037 173.771356 -11.439688 -89.891177 135.602697 11.650818 -68.13255 -11.981596 -21.346717 5.062989 163.190717 -19.686353 -110.473881 164.638255 -19.283285 -144.73496 -2.61002 1.625725 -0.578184 0.00093 -0.018504 0.005848 156.111535 -13.744986 -173.48313 81.323143 -51.182132 79.741081 127.503346 -28.368224 126.38741 0.000133 0.000338 -0.00017 -6.27906 -18.587136 -145.152399 -26.379069 -23.486324 -97.654636 -64.598253 -24.682534 -158.56019 5.9e-05 -0.001495 -7.6e-05 -1.71538 -13.314438 -180.0 5.111566 -8.040806 146.035095 -45.252224 -54.153651 39.925525
-88.2477 83.60499999999999 -2.2669 18.922581 79.160244 29.335482 -3.106412 -12.904137 -110.900514 -4.645867 -4.67929 115.019126 9.65591 12.433566 95.093949 -1.78594 9.252926 -107.017539 0.001825 0.0 0.000494 0.001825 0.0 0.000494 -148.057353 28.031013 152.902724 101.4386 -28.49304 125.876286 -176.440232 38.050843 50.769124 175.115961 -13.176713 143.605973 -4.166357 4.057444 0.784168 11.928729 -14.952592 -6.101487 -83.731455 42.33046 69.990589 -82.376698 52.52879 59.749184 -160.825376 -7.142215 143.315345 167.274845 -63.975564 132.398372 0.001162 0.063772 0.020478 -156.508141 -41.592517 176.861011 17.608679 61.627319 12.864075 -24.000494 -39.741144 -24.007286 -4.239382 -44.742792 8.647267 109.990237 -21.223165 142.253893 -12.271918 14.070817 129.061554 177.519184 1.523132 -142.843988 0.441833 0.435201 -0.069131 -66.930307 -78.765413 0.126914 19.170122 24.114659 -13.380957 62.287054 48.368715 -45.291809 36.036559 51.723042 -29.832224 163.371874 -5.602012 -143.340585 145.117304 0.185104 179.187354 -9.098263 -11.263954 10.530453 25.537965 -38.087852 24.597501 20.959333 -38.963971 22.592758 -179.987169 75.74965 -0.008779 164.331922 50.178098 -180.0 20.715552 -38.244769 107.366584 140.449578 54.47124 -51.376222 179.998247 75.749708 -0.0 176.550959 58.514566 -175.957329 -2.813529 -20.22634 -67.518176 -13.644512 41.495903 -89.022593
-88.2578 83.59259999999999 -2.0138 20.253002 79.256214 29.952991 -4.836516 -12.377027 -42.663557 -4.45809 1.353738 47.978805 8.853312 10.690549 79.04235 -0.88964 8.068346 -92.569502 0.002492 0.0 0.003795 0.00365 -0.0 -0.00319 2.185625 -15.733655 -3.201627 150.425423 65.014752 -68.009173 41.070497 -12.205056 127.50724 -34.621233 57.457414 17.592334 114.538507 -50.245315 55.721994 -132.440637 25.427416 87.696049 -140.763288 1.380828 116.22947 -73.142385 57.225395 54.292017 -36.035815 51.723704 29.83088 -16.072195 40.126218 13.033424 -0.010564 -0.872206 -0.273283 -128.276644 -84.379937 -150.415163 -12.373905 -24.158573 -11.756459 -137.345738 -13.727896 -135.44985 131.056537 54.037784 -134.943515 104.692459 17.679746 -75.540894 -6.74732 -7.824883 138.225179 177.287432 -2.441285 -142.882977 -83.254151 -50.257866 -33.615875 31.900543 5.688868 8.148563 46.208738 39.652142 -36.319097 -12.993814 -9.73726 3.377251 -153.670557 -76.484255 -121.218398 -2.358315 1.947589 -0.48867 74.841246 72.960349 -92.828227 -5.871884 1.780746 4.315227 144.261901 9.236829 141.010705 85.032055 -51.990024 84.465283 -0.000336 0.001884 0.000432 -12.831813 -25.166149 -5.76608 -13.848529 43.064026 -71.322653 -18.90416 -82.488702 76.429526 -0.031039 7.1e-05 -0.023279 -1.754707 -17.393164 -0.0 -6.785402 10.365614 -31.77848 76.667667 37.895504 -1.626343
-88.2758 83.5933 -1.7611999999999999 21.22152 79.224167 30.402247 -6.273195 -12.564467 -13.355542 -2.332539 3.291014 19.248657 -10.246549 16.727511 -86.206355 6.345333 9.648227 76.802926 0.000687 0.0 0.002561 0.000687 0.0 0.002561 0.11784 -0.714136 -0.157305 -121.709537 76.026101 -141.652836 -101.877995 -42.06257 14.178394 11.124154 -37.614344 2.992231 4.005266 -3.987758 -0.47885 -124.082324 -13.527211 111.805168 -166.824018 -43.973399 122.060761 -46.148894 55.052769 34.143053 10.082953 -31.592336 -3.252938 -112.013742 60.018946 102.441899 -0.016131 -1.323061 -0.416432 -155.953285 -12.558995 173.348698 0.098043 0.258696 0.089671 -128.769658 -29.153026 -127.104579 -2.388015 -17.550833 3.545242 -85.925587 20.19944 18.282826 -153.608148 -9.777212 -23.269102 165.482273 27.844195 -136.938015 6.768878 6.521363 -1.414064 0.056431 1.185357 -4.382022 14.228711 19.203349 -9.559857 168.215032 -19.835019 -109.952521 36.035459 51.723244 -29.83233 163.573627 -6.219494 -143.402014 145.119465 0.267721 179.212469 151.056241 -32.037869 173.804951 149.198802 25.859342 145.261558 148.545519 13.836579 142.213466 0.000319 0.000629 -0.00041 -13.069241 -25.569103 -28.274174 -18.956187 35.184326 65.767151 81.621315 -63.944511 -5.90304 179.989295 75.750822 0.008808 176.986319 57.713701 2.516425 2.301146 16.971932 82.275373 1.146728 -29.431792 -71.315163
-88.28859999999999 83.6144 -1.5085 21.907331 79.100804 30.755706 -6.658153 -12.315201 0.0 -1.154083 3.730741 6.298836 11.578397 16.258249 101.653817 -4.298557 13.620654 -112.802322 0.00021 -0.0 -0.000425 0.00021 -0.0 -0.000425 -0.165225 0.979234 0.218513 -77.057098 -17.308541 -168.985108 -172.900287 -19.201224 -72.699563 -7.902752 21.081004 0.352363 3.023972 -3.007096 -0.38636 -78.686198 26.844649 71.149558 -162.920407 -37.929079 122.629104 -61.048187 57.229126 46.991506 -0.059769 0.1676 0.031268 80.541656 -78.001705 52.074467 -71.925242 72.974986 89.77134 -153.0878 -57.340115 -172.152167 -145.173707 12.066975 -141.824086 -3.974548 -13.852324 -7.149477 -0.482989 -3.000766 0.65347 -85.207555 86.881235 0.643581 -168.726632 44.345206 -46.117318 174.032726 6.254692 -141.834023 17.201526 15.600131 -4.9309 -70.428325 -67.458481 -5.227147 140.763857 1.379975 -116.22768 -6.158049 6.257311 8.365285 161.154775 -8.160644 -143.464297 -80.98568 -77.627507 -52.544917 0.016251 -1.323172 0.415706 154.28321 11.213931 -170.335243 -16.822448 58.945996 -12.648719 -0.601079 -2.439134 1.323624 -0.006034 0.000147 -0.004023 -13.238154 -23.562429 -0.0 8.14271 44.579355 110.747777 103.048429 65.651788 169.864653 -0.0 0.000147 0.00067 -1.598845 -17.274365 -5.369885 0.925513 16.649496 86.9717 -167.85361 -24.525247 60.04491
-88.3261 83.64439999999999 -1.2153 22.548848 79.052305 31.049108 -5.236496 -16.333499 -155.445845 -1.285973 -8.461821 162.300027 -6.475297 21.914029 -109.582505 12.782086 9.328951 103.613244 -0.00372 0.0 -0.001385 0.00065 0.0 0.004036 3.206575 -26.010338 -5.105753 -85.120273 -6.659073 -143.423319 -52.888288 39.147548 -104.506965 125.577323 -65.559835 108.471831 -17.202342 15.600061 4.929718 53.382038 -57.899196 -3.622682 -151.354334 -17.157951 121.133394 58.544861 -62.545193 10.176104 -0.057114 0.168022 0.031454 -7.307013 26.197065 6.026937 -145.120666 0.310192 -179.225531 -145.008596 -50.920731 -167.28031 10.31535 33.808903 8.892742 -154.740301 35.794778 -147.983451 -3.20618 -26.010383 5.105593 -70.770723 -3.850536 26.566912 -52.484799 68.231141 -61.99674 16.616363 25.001297 -2.078161 78.029974 38.689514 -42.413145 134.00373 -24.327521 -82.215519 -5.92149 -10.174539 2.968703 -18.782125 -8.652499 1.570524 36.035312 51.723496 -29.831739 144.17753 37.320277 -131.478033 31.70836 -66.109189 46.282692 150.826446 -23.581831 -178.179349 23.392505 -36.348541 22.494848 167.680672 73.092191 147.046478 -179.993616 75.749766 -0.006586 161.227271 52.839356 -0.0 -22.37036 31.612666 -37.16944 127.455967 25.297402 -25.992028 0.000678 -0.001085 -0.000872 -1.691621 -16.075288 -0.500838 2.261925 13.107524 58.623005 -92.87471 20.613423 4.729752
